<svg width="17" height="17" viewBox="0 0 17 17" fill="none" xmlns="http://www.w3.org/2000/svg">
<path d="M9.76565 3.12224C9.76091 2.90733 9.74907 2.68219 9.63859 2.49719C9.53617 2.34657 9.3968 2.22461 9.23374 2.14294C8.40511 1.67061 7.37997 1.65251 6.45506 1.88552C5.53014 2.11854 4.68336 2.57985 3.84683 3.03722C3.65112 3.14428 3.45225 3.25528 3.31019 3.43083C3.16814 3.60638 1.89757 5.18318 1.60715 5.93812C1.36567 6.56632 1.07683 7.374 1.33489 7.99511C1.44458 8.25647 1.6695 8.45013 1.89678 8.61938C2.76638 9.26522 3.767 9.71364 4.82857 9.93324C4.86437 9.93991 4.89677 9.95872 4.92025 9.98649C4.94374 10.0143 4.95688 10.0493 4.95744 10.0856C4.95799 10.1219 4.94594 10.1573 4.92331 10.1858C4.90069 10.2143 4.86889 10.2341 4.8333 10.2418L3.35676 10.6134C2.6465 10.7913 1.89441 10.9944 1.40039 11.5344C1.17101 11.7729 1.02917 12.0816 0.997911 12.4106C0.991789 12.713 1.06555 13.0116 1.21178 13.2766C1.63399 14.1173 2.40817 14.729 3.22891 15.1808C3.53365 15.3644 3.86629 15.4973 4.2138 15.5744C4.8625 15.6925 5.52541 15.4855 6.18674 15.5044C7.08087 15.5304 7.90398 15.9657 8.76339 16.2129C9.02777 16.2916 9.29372 16.2514 9.56362 16.2042C9.78774 16.1649 10.3749 15.8366 10.5169 15.6925C10.6205 15.5953 10.7 15.4753 10.7489 15.342C10.7978 15.2088 10.8148 15.066 10.7987 14.925C10.7569 14.6377 10.629 14.37 10.5809 14.0842C10.5667 14 10.5738 13.8898 10.6543 13.8607C10.7142 13.8386 10.7782 13.8788 10.831 13.9166C11.4067 14.3231 12.0696 14.59 12.7669 14.6959C12.9899 14.7409 13.2203 14.7353 13.4408 14.6794C13.6562 14.5987 13.8528 14.4749 14.0185 14.3157C14.7636 13.6781 15.4263 12.9507 15.9915 12.15C16.1943 11.8619 16.386 11.5557 16.4571 11.2101C16.5281 10.8645 17.0008 8.79178 16.9984 8.06833C17.0098 7.89395 16.958 7.72129 16.8524 7.58183C16.6946 7.40391 16.4326 7.37715 16.2211 7.27245C15.8028 7.0662 15.6079 6.56789 15.5827 6.10343C15.5574 5.63897 15.6616 5.1753 15.6671 4.71006C15.6766 4.58124 15.6543 4.45208 15.6024 4.33377C15.5306 4.19601 15.3933 4.10548 15.2623 4.01888C14.7951 3.72026 14.3281 3.42243 13.8615 3.12539C13.4432 2.85695 13.0186 2.58615 12.5428 2.44051C12.0669 2.29488 11.531 2.29094 11.0994 2.53655C10.6677 2.78216 10.4104 3.2356 10.1713 3.67251C10.0059 3.98435 9.88225 4.31651 9.80353 4.66046C9.80081 4.67654 9.7918 4.69088 9.77848 4.70033C9.76516 4.70978 9.74862 4.71356 9.7325 4.71085C9.71639 4.70813 9.70201 4.69914 9.69254 4.68586C9.68307 4.67257 9.67927 4.65607 9.68199 4.64C9.73638 4.13588 9.76431 3.62927 9.76565 3.12224V3.12224Z" fill="#FF0024"/>
<path d="M8.26634 7.52457C8.19912 7.60712 8.16409 7.71113 8.16769 7.81742C8.17158 7.92308 8.16257 8.02882 8.14086 8.1323C8.13661 8.1539 8.12797 8.17439 8.11549 8.19253C8.103 8.21067 8.08693 8.22608 8.06826 8.23779C8.03717 8.25099 8.0031 8.25561 7.96961 8.25117C7.8193 8.24347 7.67003 8.22186 7.52373 8.18662C7.42745 8.16301 7.32012 8.13545 7.23331 8.18662C7.17825 8.22594 7.1362 8.28077 7.11257 8.34407C7.02815 8.48739 6.97441 8.6466 6.95473 8.81167C6.92474 9.58551 7.09047 10.024 7.21989 10.2019C7.47164 10.5498 7.98776 10.6341 8.38393 10.4672C8.50862 10.4144 8.63409 10.3397 8.76825 10.3562C8.92609 10.3767 9.0421 10.5215 9.17784 10.612C9.28592 10.6766 9.40693 10.7167 9.53228 10.7293C9.65763 10.742 9.78423 10.7269 9.90309 10.6852C10.1404 10.5999 10.3585 10.4685 10.5447 10.2987C10.6198 10.2421 10.6835 10.1719 10.7325 10.0917C10.7565 10.0512 10.7699 10.0052 10.7714 9.95818C10.7729 9.91113 10.7625 9.86445 10.7412 9.82246C10.7136 9.77601 10.6678 9.74374 10.6433 9.69257C10.6265 9.64583 10.6212 9.59574 10.628 9.54654C10.6347 9.49734 10.6532 9.45049 10.682 9.40996C10.8398 9.12656 11.1555 8.9085 11.176 8.58259C11.1918 8.28266 10.8896 8.10475 10.6599 7.9111C10.5178 7.79713 10.3619 7.70139 10.1959 7.62612C9.72789 7.40177 8.33736 7.44821 8.26634 7.52457Z" fill="#121212"/>
</svg>
